<?xml version="1.0" encoding="iso-8859-1"?>
<!-- Generator: Adobe Illustrator 16.0.0, SVG Export Plug-In . SVG Version: 6.00 Build 0)  -->
<!DOCTYPE svg PUBLIC "-//W3C//DTD SVG 1.1//EN" "http://www.w3.org/Graphics/SVG/1.1/DTD/svg11.dtd">
<svg version="1.1" id="Capa_1" xmlns="http://www.w3.org/2000/svg" xmlns:xlink="http://www.w3.org/1999/xlink" x="0px" y="0px"
	 width="547.597px" height="547.597px" viewBox="0 0 547.597 547.597" style="enable-background:new 0 0 547.597 547.597;"
	 xml:space="preserve">
<g>
	<g>
		<path d="M409.997,0H137.599c-13.971,0-25.264,11.312-25.264,25.264v497.059c0,13.961,11.303,25.273,25.264,25.273h272.397
			c13.952,0,25.265-11.312,25.265-25.273V25.264C435.27,11.303,423.949,0,409.997,0z M245.885,29.816h55.807
			c2.917,0,5.269,2.353,5.269,5.269s-2.352,5.269-5.269,5.269h-55.807c-2.897,0-5.269-2.353-5.269-5.269
			S242.988,29.816,245.885,29.816z M307.497,502.653H240.09c-5.527,0-10.012-4.476-10.012-10.003
			c0-5.526,4.485-10.002,10.012-10.002h67.406c5.526,0,9.992,4.476,9.992,10.002C317.489,498.178,313.033,502.653,307.497,502.653z
			 M403.685,443.69H143.911V85.642h259.774V443.69z"/>
	</g>
</g>
<g>
</g>
<g>
</g>
<g>
</g>
<g>
</g>
<g>
</g>
<g>
</g>
<g>
</g>
<g>
</g>
<g>
</g>
<g>
</g>
<g>
</g>
<g>
</g>
<g>
</g>
<g>
</g>
<g>
</g>
</svg>
