<!DOCTYPE svg PUBLIC "-//W3C//DTD SVG 20010904//EN" "http://www.w3.org/TR/2001/REC-SVG-20010904/DTD/svg10.dtd">
<svg version="1.0" xmlns="http://www.w3.org/2000/svg" width="628px" height="1023px" viewBox="0 0 6280 10230" preserveAspectRatio="xMidYMid meet">
<g id="layerbg1" fill="#141414" stroke="none">
 <path d="M3136 7073 c-9 -9 -7 -3291 2 -3296 5 -3 1049 469 3100 1403 13 5 21 6 17 1 -3 -5 -1 -12 4 -15 7 -5 26 53 19 60 -7 6 -361 214 -365 214 -2 0 -29 16 -59 35 -30 19 -57 35 -60 35 -3 0 -25 14 -49 30 -24 17 -46 30 -50 30 -3 0 -31 16 -61 35 -30 19 -57 35 -59 35 -3 0 -24 12 -48 27 -23 15 -62 38 -87 51 -25 14 -52 31 -61 38 -8 8 -19 14 -22 14 -4 0 -26 12 -50 27 -23 15 -62 38 -87 51 -25 14 -52 31 -61 38 -8 8 -19 14 -23 14 -5 0 -28 14 -53 30 -24 17 -46 30 -49 30 -3 0 -29 16 -59 34 -30 19 -71 44 -92 56 -21 11 -56 32 -78 45 -22 14 -73 44 -113 68 -40 23 -81 47 -90 52 -9 6 -118 70 -242 144 -124 73 -280 167 -348 207 -68 41 -125 74 -128 74 -3 0 -30 16 -60 35 -30 19 -57 35 -60 35 -3 0 -25 14 -49 30 -24 17 -46 30 -50 30 -3 0 -31 16 -61 35 -30 19 -57 35 -59 35 -3 0 -24 12 -48 27 -23 15 -62 38 -87 51 -25 14 -52 31 -61 38 -8 8 -19 14 -23 14 -4 0 -27 14 -51 30 -24 17 -46 30 -50 30 -3 0 -23 11 -44 24 -21 14 -42 22 -45 19z"/>
 </g>
<g id="layerbg2" fill="#383838" stroke="none">
 <path d="M3128 8942 c2 -1013 5 -1292 15 -1300 6 -6 91 -56 187 -113 96 -56 222 -130 280 -165 58 -34 155 -91 215 -126 61 -36 272 -161 470 -278 198 -117 425 -251 505 -298 80 -47 177 -104 215 -127 39 -24 210 -125 380 -225 351 -207 526 -310 735 -434 111 -66 146 -82 148 -70 2 8 -7 32 -21 52 -150 226 -3103 4368 -3115 4370 -16 3 -17 -87 -14 -1286z"/>
 <path d="M3126 7063 c-2 -3 -12 -6 -21 -7 -9 -1 -20 -7 -23 -13 -9 -14 -180 -114 -199 -117 -8 -1 -18 -7 -21 -13 -9 -14 -180 -114 -199 -117 -8 -1 -18 -7 -21 -13 -9 -14 -180 -114 -199 -117 -8 -1 -18 -7 -21 -13 -9 -14 -889 -534 -909 -537 -8 -1 -18 -7 -21 -13 -9 -14 -180 -114 -199 -117 -8 -1 -18 -7 -21 -13 -9 -14 -180 -114 -199 -117 -8 -1 -18 -7 -21 -13 -9 -14 -180 -114 -199 -117 -8 -1 -18 -7 -21 -13 -9 -14 -180 -114 -199 -117 -8 -1 -18 -7 -21 -13 -8 -13 -179 -114 -197 -117 -7 -1 -19 -8 -27 -16 -8 -8 -94 -62 -191 -119 -121 -70 -177 -109 -177 -121 0 -13 364 -182 1553 -723 l1552 -705 0 -1891 c0 -1720 1 -1891 16 -1891 10 0 49 55 101 143 47 78 257 428 468 777 211 349 416 689 455 755 40 66 244 406 455 755 592 982 817 1354 895 1485 40 66 222 370 406 675 360 598 363 603 358 617 -2 6 -704 -309 -1559 -698 -855 -389 -1558 -708 -1562 -708 -5 -1 -8 730 -8 1624 0 958 4 1624 9 1623 5 -2 8 1 8 7 -2 9 -33 15 -41 8z"/>
 </g>
<g id="layerbg3" fill="#4f4f4f" stroke="none">
 <path d="M2400 6644 c-404 -239 -1110 -656 -1567 -926 -458 -271 -833 -498 -833 -505 0 -15 55 -45 64 -35 4 3 -2 13 -13 22 -18 14 72 69 1522 925 847 501 1550 917 1560 926 11 9 16 18 11 22 -5 3 -340 -190 -744 -429z"/>
 <path d="M115 5160 c-3 -5 8 -16 24 -25 18 -9 32 -11 36 -5 3 5 -8 16 -24 25 -18 9 -32 11 -36 5z"/>
 <path d="M225 5110 c-3 -5 8 -16 24 -25 18 -9 32 -11 36 -5 3 5 -8 16 -24 25 -18 9 -32 11 -36 5z"/>
 <path d="M335 5060 c-3 -5 8 -16 24 -25 18 -9 32 -11 36 -5 3 5 -8 16 -24 25 -18 9 -32 11 -36 5z"/>
 <path d="M445 5010 c-3 -5 8 -16 24 -25 18 -9 32 -11 36 -5 3 5 -8 16 -24 25 -18 9 -32 11 -36 5z"/>
 <path d="M555 4960 c-3 -5 8 -16 24 -25 18 -9 32 -11 36 -5 3 5 -8 16 -24 25 -18 9 -32 11 -36 5z"/>
 <path d="M665 4910 c-3 -5 8 -16 24 -25 18 -9 32 -11 36 -5 3 5 -8 16 -24 25 -18 9 -32 11 -36 5z"/>
 <path d="M775 4860 c-3 -5 8 -16 24 -25 18 -9 32 -11 36 -5 3 5 -8 16 -24 25 -18 9 -32 11 -36 5z"/>
 <path d="M885 4810 c-3 -5 8 -16 24 -25 18 -9 32 -11 36 -5 3 5 -8 16 -24 25 -18 9 -32 11 -36 5z"/>
 <path d="M995 4760 c-3 -5 8 -16 24 -25 18 -9 32 -11 36 -5 3 5 -8 16 -24 25 -18 9 -32 11 -36 5z"/>
 <path d="M1105 4710 c-3 -5 8 -16 24 -25 18 -9 32 -11 36 -5 3 5 -8 16 -24 25 -18 9 -32 11 -36 5z"/>
 <path d="M1215 4660 c-3 -5 8 -16 24 -25 18 -9 32 -11 36 -5 3 5 -8 16 -24 25 -18 9 -32 11 -36 5z"/>
 <path d="M1325 4610 c-3 -5 8 -16 24 -25 18 -9 32 -11 36 -5 3 5 -8 16 -24 25 -18 9 -32 11 -36 5z"/>
 <path d="M1435 4560 c-3 -5 8 -16 24 -25 18 -9 32 -11 36 -5 3 5 -8 16 -24 25 -18 9 -32 11 -36 5z"/>
 <path d="M1545 4510 c-3 -5 8 -16 24 -25 18 -9 32 -11 36 -5 3 5 -8 16 -24 25 -18 9 -32 11 -36 5z"/>
 <path d="M1655 4460 c-3 -5 8 -16 24 -25 18 -9 32 -11 36 -5 3 5 -8 16 -24 25 -18 9 -32 11 -36 5z"/>
 <path d="M1765 4410 c-3 -5 8 -16 24 -25 18 -9 32 -11 36 -5 3 5 -8 16 -24 25 -18 9 -32 11 -36 5z"/>
 <path d="M1875 4360 c-3 -5 8 -16 24 -25 18 -9 32 -11 36 -5 3 5 -8 16 -24 25 -18 9 -32 11 -36 5z"/>
 <path d="M1985 4310 c-3 -5 8 -16 24 -25 18 -9 32 -11 36 -5 3 5 -8 16 -24 25 -18 9 -32 11 -36 5z"/>
 <path d="M2095 4260 c-3 -5 8 -16 24 -25 18 -9 32 -11 36 -5 3 5 -8 16 -24 25 -18 9 -32 11 -36 5z"/>
 <path d="M2205 4210 c-3 -5 8 -16 24 -25 18 -9 32 -11 36 -5 3 5 -8 16 -24 25 -18 9 -32 11 -36 5z"/>
 <path d="M2315 4160 c-3 -5 8 -16 24 -25 18 -9 32 -11 36 -5 3 5 -8 16 -24 25 -18 9 -32 11 -36 5z"/>
 <path d="M2425 4110 c-3 -5 8 -16 24 -25 18 -9 32 -11 36 -5 3 5 -8 16 -24 25 -18 9 -32 11 -36 5z"/>
 <path d="M2535 4060 c-3 -5 8 -16 24 -25 18 -9 32 -11 36 -5 3 5 -8 16 -24 25 -18 9 -32 11 -36 5z"/>
 <path d="M2645 4010 c-3 -5 8 -16 24 -25 18 -9 32 -11 36 -5 3 5 -8 16 -24 25 -18 9 -32 11 -36 5z"/>
 <path d="M2755 3960 c-3 -5 8 -16 24 -25 18 -9 32 -11 36 -5 3 5 -8 16 -24 25 -18 9 -32 11 -36 5z"/>
 <path d="M2865 3910 c-3 -5 8 -16 24 -25 18 -9 32 -11 36 -5 3 5 -8 16 -24 25 -18 9 -32 11 -36 5z"/>
 <path d="M2975 3860 c-3 -5 8 -16 24 -25 18 -9 32 -11 36 -5 3 5 -8 16 -24 25 -18 9 -32 11 -36 5z"/>
 <path d="M3085 3810 c-3 -5 8 -16 24 -25 18 -9 32 -11 36 -5 3 5 -8 16 -24 25 -18 9 -32 11 -36 5z"/>
 </g>
<g id="layerbg4" fill="#8c8c8c" stroke="none">
 <path d="M1585 8064 c-841 -1186 -1543 -2176 -1558 -2200 -16 -23 -27 -50 -25 -59 2 -12 404 221 1573 912 l1570 928 3 1288 c2 1221 1 1287 -15 1287 -12 0 -513 -697 -1548 -2156z"/>
 <path d="M0 5196 c0 -15 147 -261 2020 -3369 785 -1303 1100 -1817 1113 -1817 16 0 17 96 17 1885 l0 1885 -23 14 c-30 20 -3104 1416 -3117 1416 -5 0 -10 -6 -10 -14z"/>
 </g>
<g id="layer101" fill="#141414" stroke="none">
 <path d="M3140 5425 c0 -906 4 -1644 8 -1641 4 2 707 322 1562 711 855 389 1558 710 1562 714 6 5 -263 171 -382 235 -19 10 -47 27 -62 37 -14 11 -29 19 -33 19 -3 0 -26 14 -50 30 -24 17 -46 30 -50 30 -3 0 -31 16 -61 35 -30 19 -57 35 -59 35 -3 0 -24 12 -48 27 -23 15 -62 38 -87 51 -25 14 -52 31 -61 38 -8 8 -19 14 -22 14 -4 0 -26 12 -50 27 -23 15 -62 38 -87 51 -25 14 -52 31 -61 38 -8 8 -19 14 -23 14 -5 0 -28 14 -53 30 -24 17 -46 30 -49 30 -3 0 -29 16 -59 34 -30 19 -71 44 -92 56 -21 11 -56 32 -78 45 -22 14 -73 44 -113 68 -40 23 -81 47 -90 52 -9 6 -118 70 -242 144 -124 73 -280 167 -348 207 -68 41 -125 74 -128 74 -3 0 -30 16 -60 35 -30 19 -57 35 -60 35 -3 0 -25 14 -49 30 -24 17 -46 30 -50 30 -3 0 -31 16 -61 35 -30 19 -57 35 -59 35 -3 0 -24 12 -48 27 -23 15 -62 38 -87 51 -25 14 -52 31 -61 38 -8 8 -19 14 -23 14 -4 0 -27 14 -51 30 -24 17 -46 30 -50 30 -3 0 -23 11 -45 25 l-40 25 0 -1645z"/>
 </g>
<g id="layer102" fill="#383838" stroke="none">
 <path d="M3140 8939 l5 -1291 180 -106 c99 -58 227 -133 285 -168 58 -34 155 -91 215 -126 61 -36 272 -161 470 -278 198 -117 425 -251 505 -298 80 -47 177 -104 215 -127 39 -24 210 -125 380 -225 377 -222 562 -331 720 -425 164 -98 169 -101 163 -84 -8 19 -3128 4413 -3136 4417 -4 1 -5 -579 -2 -1289z"/>
 <path d="M3120 7050 c-8 -5 -19 -6 -25 -3 -5 4 -7 2 -2 -2 9 -11 -204 -136 -218 -128 -5 4 -7 2 -2 -2 9 -11 -204 -136 -218 -128 -5 4 -7 2 -2 -2 9 -10 -204 -136 -217 -128 -5 3 -7 2 -4 -3 6 -10 -897 -547 -919 -547 -7 0 -11 -3 -8 -5 8 -9 -208 -131 -220 -125 -5 4 -7 2 -2 -2 9 -11 -204 -136 -218 -128 -5 4 -7 2 -2 -2 9 -11 -204 -136 -218 -128 -5 4 -7 2 -2 -2 9 -11 -204 -136 -218 -128 -5 4 -7 2 -2 -2 9 -10 -204 -136 -217 -128 -5 3 -7 2 -4 -3 3 -5 -81 -60 -188 -123 -107 -62 -194 -117 -194 -121 0 -8 3110 -1423 3116 -1417 2 2 3 738 2 1635 -3 1423 -5 1630 -18 1622z"/>
 <path d="M4710 4495 l-1565 -711 -5 -1892 c-3 -1041 -2 -1892 1 -1892 3 0 44 64 91 143 47 78 257 428 468 777 211 349 416 689 455 755 40 66 244 406 455 755 590 978 817 1354 895 1485 40 66 230 383 424 704 194 321 351 584 349 586 -2 1 -707 -318 -1568 -710z"/>
 </g>
<g id="layer103" fill="#4f4f4f" stroke="none">
 <path d="M2400 6634 c-404 -239 -1109 -656 -1567 -926 -458 -270 -829 -496 -827 -500 3 -5 11 -3 17 5 7 8 707 425 1557 926 1389 821 1576 932 1560 931 -3 -1 -336 -196 -740 -436z"/>
 </g>
<g id="layer104" fill="#8c8c8c" stroke="none">
 <path d="M1596 8065 c-1784 -2515 -1600 -2254 -1594 -2260 2 -3 710 412 1571 921 l1567 926 0 1284 c0 706 -3 1284 -7 1284 -5 0 -696 -970 -1537 -2155z"/>
 <path d="M12 5177 c58 -105 3115 -5167 3121 -5167 4 0 6 849 5 1887 l-3 1888 -1555 707 c-855 389 -1561 707 -1568 708 -10 0 -10 -4 0 -23z"/>
 </g>

</svg>