<svg xmlns="http://www.w3.org/2000/svg" viewBox="0 0 480 480"><style></style><g id="symbol"><path d="M363.88 139.36h15.48v15.48h-15.48zM379.36 170.32h15.49v15.49h-15.49zM363.88 309.68h15.48v15.48h-15.48zM379.36 433.55h15.49v15.48h-15.49zM363.88 418.07h15.48v15.48h-15.48zM286.46 15.48h15.48v15.49h-15.48zM240.01 15.48h15.48v15.49h-15.48z"/><path d="M270.98 15.48h15.48v15.49h-15.48zM240.01 30.97h15.48v15.48h-15.48zM255.49 30.97h15.49v15.48h-15.49zM255.49 15.48h15.49v15.49h-15.49zM270.98 30.97h15.48v15.48h-15.48zM332.91 30.97h15.48v15.48h-15.48zM317.43 15.48h15.48v15.49h-15.48z"/><path d="M348.39 30.97h15.49v15.48h-15.49zM301.94 15.48h15.49v15.49h-15.49zM286.46 0h15.48v15.48h-15.48z"/><path d="M270.98 0h15.48v15.48h-15.48zM255.49 0h15.49v15.48h-15.49zM240.01 0h15.48v15.48h-15.48zM301.94 77.42h15.49V92.9h-15.49zM286.46 61.94h15.48v15.48h-15.48zM240.01 46.45h15.48v15.49h-15.48zM332.91 92.9h15.48v15.49h-15.48zM301.94 61.94h15.49v15.48h-15.49zM317.43 77.42h15.48V92.9h-15.48z"/><path d="M286.46 46.45h15.48v15.49h-15.48z"/><path d="M270.98 46.45h15.48v15.49h-15.48zM255.49 46.45h15.49v15.49h-15.49zM379.36 123.87h15.49v15.49h-15.49zM363.88 123.87h15.48v15.49h-15.48zM363.88 108.39h15.48v15.48h-15.48zM348.39 92.9h15.49v15.49h-15.49zM332.91 77.42h15.48V92.9h-15.48zM317.43 46.45h15.48v15.49h-15.48z"/><path d="M348.39 77.42h15.49V92.9h-15.49zM332.91 61.94h15.48v15.48h-15.48zM348.39 108.39h15.49v15.48h-15.49zM301.94 30.97h15.49v15.48h-15.49zM301.94 46.45h15.49v15.49h-15.49zM286.46 30.97h15.48v15.48h-15.48zM317.43 61.94h15.48v15.48h-15.48zM363.88 77.42h15.48V92.9h-15.48zM394.85 123.87h15.48v15.49h-15.48zM394.85 108.39h15.48v15.48h-15.48zM379.36 92.9h15.49v15.49h-15.49zM363.88 92.9h15.48v15.49h-15.48zM379.36 108.39h15.49v15.48h-15.49z"/><path d="M332.91 46.45h15.48v15.49h-15.48z"/><path d="M348.39 61.94h15.49v15.48h-15.49zM317.43 30.97h15.48v15.48h-15.48zM425.81 123.87h15.49v15.49h-15.49zM410.33 108.39h15.48v15.48h-15.48zM410.33 92.9h15.48v15.49h-15.48zM425.81 139.36h15.49v15.48h-15.49zM379.36 77.42h15.49V92.9h-15.49zM379.36 61.94h15.49v15.48h-15.49z"/><path d="M394.85 92.9h15.48v15.49h-15.48zM363.88 61.94h15.48v15.48h-15.48z"/><path d="M363.88 46.45h15.48v15.49h-15.48zM394.85 77.42h15.48V92.9h-15.48zM348.39 46.45h15.49v15.49h-15.49zM441.3 170.32h15.48v15.49H441.3zM441.3 185.81h15.48v15.48H441.3zM425.81 185.81h15.49v15.48h-15.49zM425.81 170.32h15.49v15.49h-15.49zM410.33 139.36h15.48v15.48h-15.48zM425.81 154.84h15.49v15.48h-15.49zM410.33 123.87h15.48v15.49h-15.48zM410.33 170.32h15.48v15.49h-15.48z"/><path d="M394.85 170.32h15.48v15.49h-15.48zM410.33 154.84h15.48v15.48h-15.48z"/><path d="M394.85 154.84h15.48v15.48h-15.48zM410.33 185.81h15.48v15.48h-15.48zM379.36 154.84h15.49v15.48h-15.49zM394.85 139.36h15.48v15.48h-15.48zM379.36 139.36h15.49v15.48h-15.49zM379.36 247.74h15.49v15.49h-15.49zM410.33 201.29h15.48v15.48h-15.48z"/><path d="M394.85 201.29h15.48v15.48h-15.48zM379.36 263.23h15.49v15.48h-15.49zM394.85 185.81h15.48v15.48h-15.48zM394.85 232.26h15.48v15.48h-15.48z"/><path d="M394.85 216.77h15.48v15.49h-15.48z"/><path d="M410.33 232.26h15.48v15.48h-15.48z"/><path d="M410.33 216.77h15.48v15.49h-15.48zM394.85 263.23h15.48v15.48h-15.48zM394.85 247.74h15.48v15.49h-15.48z"/><path d="M410.33 247.74h15.48v15.49h-15.48zM410.33 263.23h15.48v15.48h-15.48zM425.81 263.23h15.49v15.48h-15.49zM425.81 247.74h15.49v15.49h-15.49zM425.81 201.29h15.49v15.48h-15.49zM425.81 232.26h15.49v15.48h-15.49z"/><path d="M425.81 216.77h15.49v15.49h-15.49zM441.3 201.29h15.48v15.48H441.3zM441.3 247.74h15.48v15.49H441.3zM441.3 216.77h15.48v15.49H441.3zM441.3 278.71h15.48v15.48H441.3z"/><path d="M441.3 232.26h15.48v15.48H441.3zM441.3 263.23h15.48v15.48H441.3zM425.81 340.65h15.49v15.48h-15.49zM410.33 309.68h15.48v15.48h-15.48zM425.81 278.71h15.49v15.48h-15.49zM425.81 309.68h15.49v15.48h-15.49z"/><path d="M425.81 325.16h15.49v15.49h-15.49zM425.81 294.19h15.49v15.49h-15.49zM410.33 325.16h15.48v15.49h-15.48zM410.33 356.13h15.48v15.48h-15.48z"/><path d="M410.33 340.65h15.48v15.48h-15.48zM394.85 356.13h15.48v15.48h-15.48zM379.36 340.65h15.49v15.48h-15.49zM394.85 294.19h15.48v15.49h-15.48zM394.85 309.68h15.48v15.48h-15.48z"/><path d="M394.85 325.16h15.48v15.49h-15.48zM410.33 294.19h15.48v15.49h-15.48z"/><path d="M394.85 340.65h15.48v15.48h-15.48zM410.33 278.71h15.48v15.48h-15.48zM379.36 309.68h15.49v15.48h-15.49z"/><path d="M394.85 278.71h15.48v15.48h-15.48zM379.36 325.16h15.49v15.49h-15.49zM379.36 278.71h15.49v15.48h-15.49zM379.36 294.19h15.49v15.49h-15.49zM363.88 340.65h15.48v15.48h-15.48z"/><path d="M363.88 325.16h15.48v15.49h-15.48zM394.85 402.58h15.48v15.49h-15.48zM379.36 387.1h15.49v15.48h-15.49zM363.88 371.61h15.48v15.49h-15.48zM410.33 371.61h15.48v15.49h-15.48zM379.36 371.61h15.49v15.49h-15.49z"/><path d="M410.33 387.1h15.48v15.48h-15.48z"/><path d="M394.85 387.1h15.48v15.48h-15.48zM379.36 356.13h15.49v15.48h-15.49zM394.85 371.61h15.48v15.49h-15.48zM363.88 356.13h15.48v15.48h-15.48zM425.81 387.1h15.49v15.48h-15.49z"/><path d="M425.81 402.58h15.49v15.49h-15.49zM441.3 402.58h15.49v15.49H441.3zM410.33 402.58h15.48v15.49h-15.48zM410.33 418.07h15.48v15.48h-15.48zM425.82 418.07h15.48v15.48h-15.48zM425.82 433.55h15.48v15.48h-15.48zM441.3 418.07h15.48v15.48H441.3z"/><path d="M394.85 418.07h15.48v15.48h-15.48zM394.85 433.55h15.48v15.48h-15.48z"/><path d="M410.33 433.55h15.48v15.48h-15.48zM379.36 402.58h15.49v15.49h-15.49zM379.36 418.07h15.49v15.48h-15.49zM363.88 387.1h15.48v15.48h-15.48z"/><path d="M363.88 402.58h15.48v15.49h-15.48zM348.39 387.1h15.49v15.48h-15.49z"/><path d="M348.39 402.58h15.49v15.49h-15.49zM100.66 139.36h15.48v15.48h-15.48zM85.17 170.32h15.49v15.49H85.17zM100.66 309.68h15.48v15.48h-15.48zM85.17 433.55h15.49v15.48H85.17zM100.66 418.07h15.48v15.48h-15.48zM178.08 15.48h15.48v15.49h-15.48zM224.53 15.48h15.48v15.49h-15.48zM193.56 15.48h15.48v15.49h-15.48zM224.53 30.97h15.48v15.48h-15.48zM209.04 30.97h15.49v15.48h-15.49zM209.04 15.48h15.49v15.49h-15.49zM193.56 30.97h15.48v15.48h-15.48zM131.63 30.97h15.48v15.48h-15.48zM147.11 15.48h15.48v15.49h-15.48zM116.14 30.97h15.49v15.48h-15.49zM162.59 15.48h15.49v15.49h-15.49zM178.08 0h15.48v15.48h-15.48zM193.56 0h15.48v15.48h-15.48zM209.04 0h15.49v15.48h-15.49zM224.53 0h15.48v15.48h-15.48zM162.59 77.42h15.49V92.9h-15.49zM178.08 61.94h15.48v15.48h-15.48zM224.53 46.45h15.48v15.49h-15.48zM131.63 92.9h15.48v15.49h-15.48zM162.59 61.94h15.49v15.48h-15.49zM147.11 77.42h15.48V92.9h-15.48z"/><path d="M178.08 46.45h15.48v15.49h-15.48zM193.56 46.45h15.48v15.49h-15.48zM209.04 46.45h15.49v15.49h-15.49zM85.17 123.87h15.49v15.49H85.17zM100.66 123.87h15.48v15.49h-15.48zM100.66 108.39h15.48v15.48h-15.48zM116.14 92.9h15.49v15.49h-15.49zM131.63 77.42h15.48V92.9h-15.48zM147.11 46.45h15.48v15.49h-15.48zM116.14 77.42h15.49V92.9h-15.49zM131.63 61.94h15.48v15.48h-15.48zM116.14 108.39h15.49v15.48h-15.49zM162.59 30.97h15.49v15.48h-15.49zM162.59 46.45h15.49v15.49h-15.49zM178.08 30.97h15.48v15.48h-15.48z"/><path d="M147.11 61.94h15.48v15.48h-15.48zM100.66 77.42h15.48V92.9h-15.48zM69.69 123.87h15.48v15.49H69.69zM69.69 108.39h15.48v15.48H69.69zM85.17 92.9h15.49v15.49H85.17zM100.66 92.9h15.48v15.49h-15.48zM85.17 108.39h15.49v15.48H85.17zM131.63 46.45h15.48v15.49h-15.48zM116.14 61.94h15.49v15.48h-15.49zM147.11 30.97h15.48v15.48h-15.48zM38.72 123.87h15.49v15.49H38.72zM54.21 108.39h15.48v15.48H54.21zM54.21 92.9h15.48v15.49H54.21zM38.72 139.36h15.49v15.48H38.72zM85.17 77.42h15.49V92.9H85.17zM85.17 61.94h15.49v15.48H85.17zM69.69 92.9h15.48v15.49H69.69zM100.66 61.94h15.48v15.48h-15.48z"/><path d="M100.66 46.45h15.48v15.49h-15.48zM69.69 77.42h15.48V92.9H69.69zM116.14 46.45h15.49v15.49h-15.49zM23.24 170.32h15.48v15.49H23.24zM23.24 185.81h15.48v15.48H23.24zM38.72 185.81h15.49v15.48H38.72zM38.72 170.32h15.49v15.49H38.72zM54.21 139.36h15.48v15.48H54.21zM38.72 154.84h15.49v15.48H38.72zM54.21 123.87h15.48v15.49H54.21zM54.21 170.32h15.48v15.49H54.21zM69.69 170.32h15.48v15.49H69.69zM54.21 154.84h15.48v15.48H54.21zM69.69 154.84h15.48v15.48H69.69zM54.21 185.81h15.48v15.48H54.21zM85.17 154.84h15.49v15.48H85.17zM69.69 139.36h15.48v15.48H69.69zM85.17 139.36h15.49v15.48H85.17zM85.17 247.74h15.49v15.49H85.17zM54.21 201.29h15.48v15.48H54.21zM69.69 201.29h15.48v15.48H69.69zM85.17 263.23h15.49v15.48H85.17zM69.69 185.81h15.48v15.48H69.69zM69.69 232.26h15.48v15.48H69.69z"/><path d="M69.69 216.77h15.48v15.49H69.69zM54.21 232.26h15.48v15.48H54.21z"/><path d="M54.21 216.77h15.48v15.49H54.21zM69.69 263.23h15.48v15.48H69.69zM69.69 247.74h15.48v15.49H69.69zM54.21 247.74h15.48v15.49H54.21zM54.21 263.23h15.48v15.48H54.21zM38.72 263.23h15.49v15.48H38.72zM38.72 247.74h15.49v15.49H38.72zM38.72 201.29h15.49v15.48H38.72zM38.72 232.26h15.49v15.48H38.72z"/><path d="M38.72 216.77h15.49v15.49H38.72zM23.24 201.29h15.48v15.48H23.24zM23.24 247.74h15.48v15.49H23.24zM23.24 216.77h15.48v15.49H23.24zM23.24 278.71h15.48v15.48H23.24z"/><path d="M23.24 232.26h15.48v15.48H23.24zM-23.2 201.29h526.42v15.48H-23.2zM-23.2 247.74h526.42v15.48H-23.2zM23.24 263.23h15.48v15.48H23.24zM38.72 340.65h15.49v15.48H38.72zM54.21 309.68h15.48v15.48H54.21zM38.72 278.71h15.49v15.48H38.72zM38.72 309.68h15.49v15.48H38.72z"/><path d="M38.72 325.16h15.49v15.49H38.72zM38.72 294.19h15.49v15.49H38.72zM54.21 325.16h15.48v15.49H54.21zM54.21 356.13h15.48v15.48H54.21z"/><path d="M54.21 340.65h15.48v15.48H54.21zM69.69 356.13h15.48v15.48H69.69zM85.17 340.65h15.49v15.48H85.17zM69.69 294.19h15.48v15.49H69.69zM69.69 309.68h15.48v15.48H69.69zM69.69 325.16h15.48v15.49H69.69zM54.21 294.19h15.48v15.49H54.21z"/><path d="M69.69 340.65h15.48v15.48H69.69zM54.21 278.71h15.48v15.48H54.21zM85.17 309.68h15.49v15.48H85.17zM69.69 278.71h15.48v15.48H69.69zM85.17 325.16h15.49v15.49H85.17zM85.17 278.71h15.49v15.48H85.17zM85.17 294.19h15.49v15.49H85.17zM100.66 340.65h15.48v15.48h-15.48z"/><path d="M100.66 325.16h15.48v15.49h-15.48zM69.69 402.58h15.48v15.49H69.69zM85.17 387.1h15.49v15.48H85.17zM100.66 371.61h15.48v15.49h-15.48zM54.21 371.61h15.48v15.49H54.21zM85.17 371.61h15.49v15.49H85.17zM54.21 387.1h15.48v15.48H54.21z"/><path d="M69.69 387.1h15.48v15.48H69.69zM85.17 356.13h15.49v15.48H85.17zM69.69 371.61h15.48v15.49H69.69zM100.66 356.13h15.48v15.48h-15.48zM38.72 387.1h15.49v15.48H38.72z"/><path d="M38.72 402.58h15.49v15.49H38.72z"/><path d="M23.24 402.58h15.49v15.49H23.24zM54.21 402.58h15.48v15.49H54.21zM54.21 418.07h15.48v15.48H54.21zM38.73 418.07h15.48v15.48H38.73zM38.73 433.55h15.48v15.48H38.73zM23.24 418.07h15.48v15.48H23.24zM69.69 418.07h15.48v15.48H69.69zM69.69 433.55h15.48v15.48H69.69zM54.21 433.55h15.48v15.48H54.21zM85.17 402.58h15.49v15.49H85.17zM85.17 418.07h15.49v15.48H85.17zM100.66 387.1h15.48v15.48h-15.48z"/><path d="M100.66 402.58h15.48v15.49h-15.48zM116.14 387.1h15.49v15.48h-15.49z"/><path d="M116.14 402.58h15.49v15.49h-15.49z"/></g></svg>