<svg xmlns="http://www.w3.org/2000/svg" viewBox="0 0 110.55 110.55"><style>.st5{fill:#231f20}.st7{fill:#fff}.st8{fill:#857550}.st9{fill:#635c45}.st10{fill:#4c442a}</style><g id="coin_gold"><circle class="st8" cx="55.28" cy="55.28" r="55.28"/><path class="st9" d="M7.61 70.07l1.33 3.66.74-.3-1.31-3.6zM9.36 74.82l.33.7.74-.32-.34-.69zM6.18 64l.18 1.16c.06.39.18.76.27 1.14l.78-.18c-.09-.37-.21-.74-.27-1.12l-.17-1.14-.79.14zM5.53 58.39l.1 1.94.29 1.93.79-.11-.28-1.9-.1-1.91zM21.43 91.87l1.44 1.31c.24.22.48.44.73.65l.78.58.5-.63-.77-.57c-.25-.2-.48-.43-.71-.64l-1.42-1.29-.55.59zM25.32 95.12l.62.46.47-.64-.61-.46zM17.1 87.38l1.58 1.74.58-.55-1.54-1.7zM13.71 82.87c.72 1.08 1.54 2.09 2.31 3.14l.63-.49c-.75-1.03-1.56-2.03-2.27-3.09l-.67.44z"/><g><path class="st9" d="M44.26 103.91l.94.25.97.15 1.92.29.12-.79-1.9-.29-.95-.15-.93-.24zM49.25 104.78l.77.11.08-.79-.76-.12zM38.28 102.14l2.2.8.24-.76-2.17-.79zM33.09 99.92l1.76.85c.58.29 1.17.57 1.79.77l.3-.74c-.61-.2-1.19-.47-1.76-.76l-1.73-.83-.36.71z"/></g><g><path class="st9" d="M102.94 40.49l-1.33-3.67-.74.3 1.31 3.6zM101.19 35.73l-.33-.7-.73.32.33.69zM104.37 46.56l-.18-1.16c-.06-.38-.18-.76-.27-1.14l-.78.18c.09.37.21.74.27 1.12l.17 1.14.79-.14zM105.02 52.17l-.1-1.95-.29-1.93-.79.11.28 1.9.1 1.91z"/><g><path class="st9" d="M89.12 18.68l-1.44-1.31c-.24-.22-.48-.44-.73-.65l-.78-.58-.5.63.77.57c.25.2.48.43.71.64l1.42 1.29.55-.59zM85.23 15.44l-.62-.47-.47.65.61.46zM93.45 23.17l-1.58-1.73-.58.54 1.54 1.7zM96.84 27.68c-.72-1.08-1.54-2.09-2.31-3.14l-.63.49c.75 1.03 1.56 2.03 2.27 3.09l.67-.44z"/></g><g><path class="st9" d="M66.29 6.64l-.94-.25-.96-.15-1.93-.29-.12.79 1.9.29.95.15.93.24zM61.3 5.77l-.77-.11-.08.79.76.12zM72.27 8.41l-2.2-.8-.24.76 2.17.79zM77.46 10.63l-1.76-.85c-.58-.29-1.17-.57-1.79-.77l-.3.74c.61.2 1.19.47 1.76.76l1.73.83.36-.71z"/></g></g><g><path class="st10" d="M18.92 66.8l-8.08 1.83-.78-3.44c-.23-1-.19-1.78.11-2.33s.78-.91 1.44-1.06c.36-.08.71-.07 1.05.04.34.11.63.34.87.7.03-.48.2-.88.5-1.18.3-.3.66-.5 1.08-.59.71-.16 1.33-.05 1.86.35.53.39.91 1.09 1.14 2.09l.81 3.59zm-7.23-1.82l.29 1.26 1.6-.36-.29-1.26c-.08-.34-.21-.57-.39-.68a.844.844 0 0 0-.65-.08c-.23.05-.4.17-.51.36-.11.18-.12.44-.05.76zm3.06-.77l.3 1.33 1.81-.41-.3-1.33c-.09-.39-.23-.65-.43-.77-.2-.12-.44-.15-.73-.09-.29.07-.49.21-.61.42s-.12.5-.04.85zM15.26 59.8l-4.15.16-.08-2.04 3.76-.15c.57-.02.84-.28.82-.78-.01-.28-.1-.5-.27-.67a.815.815 0 0 0-.64-.24l-3.74.15-.08-2.04 6.31-.25.07 1.76-.79.17c.29.17.53.4.7.7.17.3.27.65.28 1.04.03.66-.15 1.19-.53 1.56-.38.4-.93.6-1.66.63zM15.45 52.35l-2.78-.3-.1.95-1.55-.17.06-.6c.02-.17 0-.28-.05-.35-.05-.07-.16-.12-.32-.16l-1.4-.36.18-1.69 1.79.19.14-1.3 1.6.17-.14 1.29 2.41.26c.26.03.45 0 .56-.1s.18-.27.21-.54l.07-.69 1.59.17a12.733 12.733 0 0 1-.04 1.41c-.14 1.36-.89 1.97-2.23 1.82zM16.11 47.46l-2.72-.64-.22.92-1.52-.36.14-.58c.04-.16.04-.28 0-.35s-.14-.14-.3-.2l-1.34-.53.39-1.66 1.75.41.3-1.27 1.57.37-.3 1.26 2.36.56c.26.06.45.05.57-.03.12-.08.21-.25.28-.51l.16-.68 1.55.37c-.02.21-.04.44-.08.7s-.08.49-.13.69c-.33 1.33-1.15 1.84-2.46 1.53zM19.19 37.77c.37.2.65.48.84.85s.29.79.3 1.25c0 .47-.09.95-.29 1.46-.36.92-.91 1.54-1.65 1.85-.74.31-1.58.28-2.52-.09-.96-.38-1.61-.94-1.95-1.68-.34-.74-.33-1.57.04-2.5.35-.89.88-1.47 1.61-1.77.72-.29 1.54-.26 2.47.11.1.04.21.08.31.13s.19.09.26.13l-1.5 3.81c.8.2 1.32 0 1.56-.61.19-.48.13-.86-.17-1.13l.69-1.81zM15.3 39.4c-.22.57-.01 1.05.64 1.44l.64-1.63c.07-.19.02-.31-.15-.38a.786.786 0 0 0-.67.03c-.21.11-.36.29-.46.54zM21.45 37.85l-5.46-3.16.88-1.53.85.31c-.17-.28-.26-.59-.26-.92-.01-.33.08-.65.26-.96.04-.08.1-.15.16-.24.06-.08.11-.14.15-.17l1.59.92-.26.46c-.26.46-.37.84-.31 1.14.06.3.29.57.7.81l2.73 1.58-1.03 1.76zM24.1 29.39l1.22-1.55c.39.35.66.75.81 1.2.15.45.17.92.08 1.4-.1.48-.32.94-.66 1.38-.62.79-1.33 1.22-2.12 1.31-.8.09-1.6-.19-2.4-.82-.54-.42-.92-.88-1.14-1.39-.23-.51-.3-1.03-.21-1.58.09-.54.33-1.08.75-1.6.35-.44.74-.76 1.17-.97s.88-.28 1.35-.24.92.22 1.36.53l-1.22 1.55c-.52-.26-.95-.17-1.28.25-.22.28-.28.57-.2.88s.32.62.71.93c.77.61 1.38.63 1.83.05.34-.45.33-.89-.05-1.33zM26.1 27.53l-2.79-3.07 1.51-1.37 2.54 2.79c.38.42.76.46 1.12.13.21-.19.32-.4.34-.64a.824.824 0 0 0-.23-.64l-2.52-2.77 1.51-1.37 4.25 4.67-1.3 1.19-.64-.49c.06.33.04.66-.08.99-.12.33-.33.62-.62.88-.49.45-1 .65-1.54.6-.55-.07-1.06-.36-1.55-.9zM33.74 26.61l-4.57-7.28 1.5-.94.54.59c0-.71.35-1.29 1.06-1.74.45-.28.91-.41 1.38-.39.47.02.93.18 1.37.47.44.3.83.72 1.18 1.28s.57 1.11.65 1.65c.08.54.02 1.03-.18 1.48-.2.45-.53.81-.99 1.1-.58.37-1.17.45-1.76.24l1.54 2.45-1.72 1.09zm-1.43-6.13l.57.91c.15.24.35.38.61.42.26.04.52-.02.79-.19.31-.2.48-.46.51-.79.03-.33-.08-.7-.33-1.09-.25-.41-.54-.67-.84-.78-.31-.11-.62-.07-.93.12-.27.17-.44.38-.51.64s-.03.51.13.76zM40.77 20l-2.5-7.89 3.36-1.07c.98-.31 1.75-.34 2.33-.09s.97.7 1.18 1.35c.11.35.13.7.05 1.05-.08.35-.28.66-.62.92.48-.01.89.12 1.21.4.33.28.55.62.68 1.02.22.69.16 1.32-.19 1.88-.35.56-1.01 1-1.98 1.31L40.77 20zm1.2-7.36l-1.24.39.5 1.57 1.24-.39c.34-.11.55-.26.64-.45.09-.19.1-.41.02-.66a.749.749 0 0 0-.4-.48c-.19-.08-.44-.08-.76.02zM43 15.63l-1.3.41.56 1.77 1.3-.41c.38-.12.62-.28.73-.49.11-.21.12-.45.03-.73-.09-.28-.25-.47-.47-.57-.23-.1-.51-.09-.85.02zM47.46 15.77l-.5-4.12 2.02-.25.46 3.74c.07.56.35.82.84.76.28-.03.49-.14.65-.33.15-.18.22-.4.19-.66l-.46-3.72 2.03-.25.77 6.27-1.75.21-.24-.77c-.14.31-.35.56-.64.75-.29.2-.62.32-1.01.37-.66.08-1.19-.05-1.6-.4-.42-.34-.67-.88-.76-1.6zM58.18 14.85l1.97.09c-.05.52-.22.97-.5 1.35-.28.38-.64.68-1.09.88-.45.2-.95.29-1.51.26-1-.04-1.77-.36-2.3-.96-.54-.6-.78-1.41-.74-2.43.03-.68.18-1.26.47-1.74.28-.48.67-.84 1.16-1.09.49-.25 1.07-.36 1.73-.33.56.02 1.05.15 1.47.39s.74.55.98.96c.23.4.36.87.37 1.41l-1.97-.09c-.09-.57-.41-.87-.95-.89-.35-.02-.63.1-.83.35-.2.25-.32.62-.34 1.12-.04.98.3 1.49 1.03 1.52.56.04.91-.23 1.05-.8zM60.49 17.51l1.82-8.38 1.99.43-1.02 4.71 2.45-2.08 2.22.48-2.89 2.23 1.75 3.98-2.38-.52-1.3-3.4-.65 2.98-1.99-.43zM67.52 17.17l1.81.73c-.04.42.17.72.63.9.24.1.45.13.62.09.18-.04.3-.14.37-.3.06-.14.04-.27-.05-.39s-.26-.25-.5-.38l-.45-.25c-.69-.38-1.15-.78-1.37-1.2-.22-.42-.23-.89-.02-1.41.24-.59.66-.96 1.26-1.13s1.29-.09 2.05.22c.75.3 1.28.71 1.61 1.23.32.52.38 1.08.18 1.68l-1.77-.71c.06-.41-.12-.69-.53-.86-.47-.19-.77-.12-.89.2-.05.13-.04.24.03.35.07.11.21.22.41.33l.45.24c.75.42 1.25.84 1.5 1.28.24.43.25.92.04 1.46-.25.61-.67.99-1.29 1.15-.61.16-1.33.07-2.14-.26-.79-.32-1.36-.74-1.7-1.27-.34-.52-.43-1.09-.25-1.7z"/></g><g><path class="st10" d="M34.05 94.61l1.14.56c-.03.14-.03.26.01.37.04.11.14.2.28.27.12.06.22.08.31.07.09-.01.16-.06.21-.15.04-.08.04-.15 0-.22a.707.707 0 0 0-.23-.23l-.31-.23c-.39-.29-.64-.57-.75-.86-.11-.29-.09-.59.06-.91.14-.28.32-.47.54-.58.23-.11.48-.16.75-.13.27.02.54.1.81.23.29.14.53.32.71.53.18.21.3.44.35.68.05.24.01.48-.1.73l-1.14-.56c.02-.11.01-.21-.05-.29a.568.568 0 0 0-.23-.2c-.09-.05-.18-.06-.27-.05-.09.01-.15.06-.19.14-.02.04-.03.1-.01.17.01.07.08.15.2.24l.3.22c.42.31.69.61.81.89.12.28.1.58-.06.91-.13.27-.31.46-.52.58s-.47.18-.75.16c-.28-.02-.58-.1-.89-.25-.34-.17-.6-.36-.78-.59s-.29-.47-.33-.73.01-.52.13-.77zM36.84 98.7l1.56-4.05.97.37-.07.41c.13-.11.27-.17.44-.2.17-.02.35 0 .54.08.26.1.46.25.59.46s.2.44.2.71c.01.27-.05.55-.16.84-.11.29-.26.54-.45.74-.19.2-.4.33-.64.4s-.49.05-.76-.05a.97.97 0 0 1-.59-.6l-.51 1.33-1.12-.44zm2.18-2.33l-.17.44c-.05.13-.04.24.02.32.06.08.14.14.24.18.14.05.27.04.38-.04.11-.08.2-.2.27-.38s.09-.33.06-.47a.396.396 0 0 0-.26-.29c-.09-.04-.19-.04-.3-.02s-.18.12-.24.26zM40.89 98.99l1.29-4.09 1.15.36-1.29 4.09-1.15-.36zM42.94 98.5l.51-2.06 1.16.29-.45 1.83c-.05.21.01.33.19.37.09.02.17.01.26-.02.08-.04.14-.11.16-.22l.45-1.81 1.16.29-.77 3.11-1.01-.25.02-.41c-.1.11-.24.19-.4.24-.16.05-.34.05-.55 0-.29-.07-.51-.22-.66-.44s-.16-.53-.07-.92zM46.32 100.43l.52-3.16 1.02.17.02.41a.85.85 0 0 1 .37-.27c.16-.07.34-.08.56-.04.3.05.53.18.7.39.17.21.22.51.15.91l-.34 2.09-1.18-.19.3-1.86c.03-.21-.04-.33-.23-.36a.39.39 0 0 0-.26.04c-.08.04-.13.12-.15.23l-.3 1.84-1.18-.2zM50.03 101.01l.33-4.28 1.2.09-.18 2.35.96-1.2 1.28.1-1.19 1.33 1.03 1.87-1.38-.11-.74-1.55-.12 1.48-1.19-.08zM55.25 101.28l-.02-1.09 1.19-.02.02 1.09-1.19.02zM58.95 99.8l1.16-.08c0 .24-.04.46-.15.68-.11.22-.27.4-.48.55-.22.15-.49.24-.83.26-.54.04-.96-.08-1.26-.36-.3-.28-.47-.67-.5-1.17a1.9 1.9 0 0 1 .13-.87c.11-.26.28-.47.52-.63s.54-.25.91-.28c.34-.02.62.02.85.14.23.12.41.28.54.48s.21.42.24.66l-1.15.08a.513.513 0 0 0-.15-.26c-.07-.06-.16-.08-.27-.07-.14.01-.24.07-.3.19s-.09.27-.07.48c.01.2.06.34.14.45.08.1.19.15.32.14.12-.01.2-.04.26-.11.03-.08.07-.17.09-.28zM62.36 100.79c-.36.06-.68.03-.95-.07s-.48-.27-.65-.49c-.16-.23-.27-.5-.32-.82-.05-.32-.03-.62.05-.89.09-.27.24-.49.47-.67.23-.18.52-.3.88-.35.37-.06.68-.04.95.07s.48.26.64.49c.16.23.27.5.32.82.05.32.03.62-.05.89-.09.27-.24.49-.46.67-.22.18-.51.3-.88.35zm-.16-1.02c.3-.05.41-.28.35-.69-.03-.2-.09-.34-.18-.44a.407.407 0 0 0-.36-.11c-.3.05-.41.28-.35.69.03.19.09.34.18.43.1.1.22.14.36.12zM64.63 100.35l-.75-3.11 1.01-.24.18.37c.04-.14.12-.27.24-.39s.29-.21.5-.26c.3-.07.56-.04.8.09.23.13.4.39.49.78l.5 2.06-1.17.28-.44-1.83c-.05-.21-.17-.29-.35-.24a.4.4 0 0 0-.22.14c-.06.07-.07.16-.05.27l.44 1.81-1.18.27zM68.51 99.35l-.66-2.08-.42.13-.27-.86.42-.13-.03-.1c-.08-.25-.09-.47-.04-.67.05-.2.15-.36.3-.5s.34-.24.56-.31c.13-.04.25-.07.39-.09.13-.02.23-.04.3-.05l.24.77-.31.1c-.15.05-.24.11-.27.18-.04.07-.03.17.01.3v.02l.57-.18.27.86-.57.18.66 2.08-1.15.35zM71.84 98.2l-.96-2.43-.88.35-.37-.93.6-.24c.11-.04.17-.09.2-.14.03-.05.03-.13.01-.25l-.03-.19 1.03-.41 1.5 3.8-1.1.44zM75.17 96.83c-.13.07-.27.12-.41.17-.14.05-.25.08-.34.09l-.39-.79.48-.24c.35-.17.59-.37.73-.58.14-.21.14-.47.02-.77-.02.16-.08.31-.19.45s-.26.25-.44.34c-.23.11-.45.16-.66.14-.21-.02-.41-.1-.58-.23a1.52 1.52 0 0 1-.43-.53c-.13-.26-.18-.52-.17-.78.02-.25.11-.49.27-.71.16-.22.39-.4.69-.55.29-.14.59-.21.88-.21.29.01.57.11.83.32s.5.52.72.95c.63 1.31.3 2.29-1.01 2.93zm-.6-2.3c.13-.07.22-.15.26-.27.04-.11.03-.23-.03-.35-.06-.11-.14-.19-.25-.23s-.23-.02-.37.04c-.13.06-.21.15-.25.26-.04.11-.03.23.03.35.06.12.15.2.26.23.11.05.23.03.35-.03z"/></g><g><path class="st10" d="M79.68 76.08h.28v.28h-.28zM79.96 76.63h.28v.28h-.28zM79.68 79.12h.28v.28h-.28zM79.96 81.32h.28v.28h-.28z"/><path class="st10" d="M79.68 81.05h.28v.28h-.28zM77.2 74.43h.28v.28h-.28zM77.2 73.6h.28v.28h-.28zM77.2 74.15h.28v.28h-.28zM78.31 73.87h.28v.28h-.28zM77.48 73.87h.28v.28h-.28zM78.03 73.87h.28v.28h-.28zM77.48 74.15h.28v.28h-.28z"/><path class="st10" d="M77.75 74.15h.28v.28h-.28zM77.75 73.87h.28v.28h-.28zM78.03 74.15h.28v.28h-.28zM77.2 73.87h.28v.28h-.28zM79.13 74.15h.28v.28h-.28zM78.86 73.87h.28v.28h-.28zM79.41 74.15h.28v.28h-.28zM78.58 73.87h.28v.28h-.28z"/><path class="st10" d="M78.31 73.6h.28v.28h-.28zM78.03 73.6h.28v.28h-.28zM77.75 73.6h.28v.28h-.28z"/><path class="st10" d="M77.48 73.6h.28v.28h-.28zM78.58 74.98h.28v.28h-.28zM78.31 74.7h.28v.28h-.28zM77.48 74.43h.28v.28h-.28zM78.03 74.7h.28v.28h-.28zM79.13 75.25h.28v.28h-.28z"/><path class="st10" d="M78.58 74.7h.28v.28h-.28zM78.86 74.98h.28v.28h-.28z"/><path class="st10" d="M78.31 74.43h.28v.28h-.28zM78.03 74.43h.28v.28h-.28zM77.75 74.43h.28v.28h-.28zM79.96 75.8h.28v.28h-.28z"/><path class="st10" d="M79.68 75.8h.28v.28h-.28z"/><path class="st10" d="M79.68 75.53h.28v.28h-.28zM79.41 75.25h.28v.28h-.28zM79.13 74.98h.28v.28h-.28zM78.86 74.43h.28v.28h-.28z"/><path class="st10" d="M79.41 74.98h.28v.28h-.28zM79.13 74.7h.28v.28h-.28zM79.41 75.53h.28v.28h-.28zM78.58 74.15h.28v.28h-.28zM78.58 74.43h.28v.28h-.28z"/><path class="st10" d="M78.31 74.15h.28v.28h-.28zM78.86 74.7h.28v.28h-.28zM79.68 74.98h.28v.28h-.28zM80.24 75.8h.28v.28h-.28z"/><path class="st10" d="M80.24 75.53h.28v.28h-.28zM79.96 75.25h.28v.28h-.28z"/><path class="st10" d="M79.68 75.25h.28v.28h-.28zM79.96 75.53h.28v.28h-.28zM79.13 74.43h.28v.28h-.28zM79.41 74.7h.28v.28h-.28zM78.86 74.15h.28v.28h-.28zM80.79 75.8h.28v.28h-.28zM80.51 75.53h.28v.28h-.28zM80.51 75.25h.28v.28h-.28zM80.79 76.08h.28v.28h-.28z"/><path class="st10" d="M79.96 74.98h.28v.28h-.28zM79.96 74.7h.28v.28h-.28zM80.24 75.25h.28v.28h-.28z"/><path class="st10" d="M79.68 74.7h.28v.28h-.28z"/><path class="st10" d="M79.68 74.43h.28v.28h-.28zM80.24 74.98h.28v.28h-.28z"/><path class="st10" d="M79.41 74.43h.28v.28h-.28zM81.06 76.63h.28v.28h-.28zM81.06 76.91h.28v.28h-.28z"/><path class="st10" d="M80.79 76.91h.28v.28h-.28zM80.79 76.63h.28v.28h-.28zM80.51 76.08h.28v.28h-.28z"/><path class="st10" d="M80.79 76.36h.28v.28h-.28zM80.51 75.8h.28v.28h-.28zM80.51 76.63h.28v.28h-.28z"/><path class="st10" d="M80.24 76.63h.28v.28h-.28z"/><path class="st10" d="M80.51 76.36h.28v.28h-.28z"/><path class="st10" d="M80.24 76.36h.28v.28h-.28zM80.51 76.91h.28v.28h-.28zM79.96 76.36h.28v.28h-.28zM80.24 76.08h.28v.28h-.28zM79.96 76.08h.28v.28h-.28zM79.96 78.01h.28v.28h-.28z"/><path class="st10" d="M80.51 77.18h.28v.28h-.28z"/><path class="st10" d="M80.24 77.18h.28v.28h-.28zM79.96 78.29h.28v.28h-.28z"/><path class="st10" d="M80.24 76.91h.28v.28h-.28zM80.24 77.74h.28v.28h-.28zM80.24 77.46h.28v.28h-.28z"/><path class="st10" d="M80.51 77.74h.28v.28h-.28zM80.51 77.46h.28v.28h-.28zM80.24 78.29h.28v.28h-.28z"/><path class="st10" d="M80.24 78.01h.28v.28h-.28z"/><path class="st10" d="M80.51 78.01h.28v.28h-.28zM80.51 78.29h.28v.28h-.28zM80.79 78.29h.28v.28h-.28zM80.79 78.01h.28v.28h-.28zM80.79 77.18h.28v.28h-.28z"/><path class="st10" d="M80.79 77.74h.28v.28h-.28zM80.79 77.46h.28v.28h-.28z"/><path class="st10" d="M81.06 77.18h.28v.28h-.28zM81.06 78.01h.28v.28h-.28z"/><path class="st10" d="M81.06 77.46h.28v.28h-.28zM81.06 78.56h.28v.28h-.28zM81.06 77.74h.28v.28h-.28z"/><path class="st10" d="M81.06 78.29h.28v.28h-.28zM80.79 79.67h.28v.28h-.28zM80.51 79.12h.28v.28h-.28z"/><path class="st10" d="M80.79 78.56h.28v.28h-.28zM80.79 79.12h.28v.28h-.28z"/><path class="st10" d="M80.79 79.39h.28v.28h-.28zM80.79 78.84h.28v.28h-.28zM80.51 79.39h.28v.28h-.28zM80.51 79.94h.28v.28h-.28z"/><path class="st10" d="M80.51 79.67h.28v.28h-.28z"/><path class="st10" d="M80.24 79.94h.28v.28h-.28zM79.96 79.67h.28v.28h-.28zM80.24 78.84h.28v.28h-.28zM80.24 79.12h.28v.28h-.28z"/><path class="st10" d="M80.24 79.39h.28v.28h-.28zM80.51 78.84h.28v.28h-.28zM80.24 79.67h.28v.28h-.28zM80.51 78.56h.28v.28h-.28zM79.96 79.12h.28v.28h-.28z"/><path class="st10" d="M80.24 78.56h.28v.28h-.28zM79.96 79.39h.28v.28h-.28zM79.96 78.56h.28v.28h-.28zM79.96 78.84h.28v.28h-.28zM79.68 79.67h.28v.28h-.28z"/><path class="st10" d="M79.41 79.94h.28v.28h-.28zM79.68 79.39h.28v.28h-.28zM80.24 80.77h.28v.28h-.28zM79.96 80.49h.28v.28h-.28zM79.41 80.22h.28v.28h-.28z"/><path class="st10" d="M79.68 80.22h.28v.28h-.28zM80.51 80.22h.28v.28h-.28z"/><path class="st10" d="M79.96 80.22h.28v.28h-.28zM80.51 80.49h.28v.28h-.28z"/><path class="st10" d="M80.24 80.49h.28v.28h-.28zM79.96 79.94h.28v.28h-.28z"/><path class="st10" d="M80.24 80.22h.28v.28h-.28zM79.68 79.94h.28v.28h-.28zM80.79 80.49h.28v.28h-.28zM80.79 80.77h.28v.28h-.28zM80.51 80.77h.28v.28h-.28zM80.51 81.05h.28v.28h-.28z"/><path class="st10" d="M80.24 81.05h.28v.28h-.28z"/><path class="st10" d="M80.24 81.32h.28v.28h-.28zM79.96 80.77h.28v.28h-.28zM79.96 81.05h.28v.28h-.28zM79.68 80.49h.28v.28h-.28z"/><path class="st10" d="M79.68 80.77h.28v.28h-.28zM79.41 80.49h.28v.28h-.28z"/><path class="st10" d="M79.41 80.77h.28v.28h-.28zM79.13 80.49h.28v.28h-.28z"/><g><path class="st10" d="M74.44 76.08h.28v.28h-.28zM74.17 76.63h.28v.28h-.28zM74.44 79.12h.28v.28h-.28zM74.17 81.32h.28v.28h-.28z"/><path class="st10" d="M74.44 81.05h.28v.28h-.28zM76.93 74.43h.28v.28h-.28zM76.93 73.6h.28v.28h-.28zM76.93 74.15h.28v.28h-.28zM75.82 73.87h.28v.28h-.28zM76.65 73.87h.28v.28h-.28zM76.1 73.87h.28v.28h-.28zM76.65 74.15h.28v.28h-.28zM76.37 74.15h.28v.28h-.28z"/><path class="st10" d="M76.37 73.87h.28v.28h-.28zM76.1 74.15h.28v.28h-.28zM76.93 73.87h.28v.28h-.28zM74.99 74.15h.28v.28h-.28zM75.27 73.87h.28v.28h-.28z"/><path class="st10" d="M74.72 74.15H75v.28h-.28zM75.55 73.87h.28v.28h-.28z"/><path class="st10" d="M75.82 73.6h.28v.28h-.28zM76.1 73.6h.28v.28h-.28z"/><path class="st10" d="M76.37 73.6h.28v.28h-.28zM76.65 73.6h.28v.28h-.28zM75.55 74.98h.28v.28h-.28zM75.82 74.7h.28v.28h-.28zM76.65 74.43h.28v.28h-.28zM76.1 74.7h.28v.28h-.28zM74.99 75.25h.28v.28h-.28z"/><path class="st10" d="M75.55 74.7h.28v.28h-.28zM75.27 74.98h.28v.28h-.28z"/><path class="st10" d="M75.82 74.43h.28v.28h-.28zM76.1 74.43h.28v.28h-.28z"/><path class="st10" d="M76.37 74.43h.28v.28h-.28zM74.17 75.8h.28v.28h-.28z"/><path class="st10" d="M74.44 75.8h.28v.28h-.28z"/><path class="st10" d="M74.44 75.53h.28v.28h-.28zM74.72 75.25H75v.28h-.28z"/><path class="st10" d="M74.99 74.98h.28v.28h-.28zM75.27 74.43h.28v.28h-.28z"/><path class="st10" d="M74.72 74.98H75v.28h-.28zM74.99 74.7h.28v.28h-.28zM74.72 75.53H75v.28h-.28zM75.55 74.15h.28v.28h-.28zM75.55 74.43h.28v.28h-.28z"/><path class="st10" d="M75.82 74.15h.28v.28h-.28zM75.27 74.7h.28v.28h-.28zM74.44 74.98h.28v.28h-.28zM73.89 75.8h.28v.28h-.28z"/><path class="st10" d="M73.89 75.53h.28v.28h-.28zM74.17 75.25h.28v.28h-.28z"/><path class="st10" d="M74.44 75.25h.28v.28h-.28zM74.17 75.53h.28v.28h-.28zM74.99 74.43h.28v.28h-.28z"/><path class="st10" d="M74.72 74.7H75v.28h-.28zM75.27 74.15h.28v.28h-.28zM73.34 75.8h.28v.28h-.28zM73.62 75.53h.28v.28h-.28zM73.62 75.25h.28v.28h-.28zM73.34 76.08h.28v.28h-.28zM74.17 74.98h.28v.28h-.28zM74.17 74.7h.28v.28h-.28z"/><path class="st10" d="M73.89 75.25h.28v.28h-.28zM74.44 74.7h.28v.28h-.28z"/><path class="st10" d="M74.44 74.43h.28v.28h-.28zM73.89 74.98h.28v.28h-.28zM74.72 74.43H75v.28h-.28zM73.06 76.63h.28v.28h-.28zM73.06 76.91h.28v.28h-.28z"/><path class="st10" d="M71.9 76.91h10.74v.28H71.9zM71.9 78.01h10.74v.28H71.9z"/><path class="st10" d="M73.34 76.91h.28v.28h-.28zM73.34 76.63h.28v.28h-.28zM73.62 76.08h.28v.28h-.28z"/><path class="st10" d="M73.34 76.36h.28v.28h-.28zM73.62 75.8h.28v.28h-.28zM73.62 76.63h.28v.28h-.28z"/><path class="st10" d="M73.89 76.63h.28v.28h-.28z"/><path class="st10" d="M73.62 76.36h.28v.28h-.28z"/><path class="st10" d="M73.89 76.36h.28v.28h-.28zM73.62 76.91h.28v.28h-.28zM74.17 76.36h.28v.28h-.28zM73.89 76.08h.28v.28h-.28zM74.17 76.08h.28v.28h-.28zM74.17 78.01h.28v.28h-.28z"/><path class="st10" d="M73.62 77.18h.28v.28h-.28z"/><path class="st10" d="M73.89 77.18h.28v.28h-.28zM74.17 78.29h.28v.28h-.28z"/><path class="st10" d="M73.89 76.91h.28v.28h-.28zM73.89 77.74h.28v.28h-.28zM73.89 77.46h.28v.28h-.28z"/><path class="st10" d="M73.62 77.74h.28v.28h-.28zM73.62 77.46h.28v.28h-.28zM73.89 78.29h.28v.28h-.28z"/><path class="st10" d="M73.89 78.01h.28v.28h-.28z"/><path class="st10" d="M73.62 78.01h.28v.28h-.28zM73.62 78.29h.28v.28h-.28zM73.34 78.29h.28v.28h-.28zM73.34 78.01h.28v.28h-.28zM73.34 77.18h.28v.28h-.28z"/><path class="st10" d="M73.34 77.74h.28v.28h-.28zM73.34 77.46h.28v.28h-.28zM73.06 77.18h.28v.28h-.28zM73.06 78.01h.28v.28h-.28z"/><path class="st10" d="M73.06 77.46h.28v.28h-.28zM73.06 78.56h.28v.28h-.28zM73.06 77.74h.28v.28h-.28z"/><path class="st10" d="M73.06 78.29h.28v.28h-.28zM73.34 79.67h.28v.28h-.28zM73.62 79.12h.28v.28h-.28zM73.34 78.56h.28v.28h-.28zM73.34 79.12h.28v.28h-.28z"/><path class="st10" d="M73.34 79.39h.28v.28h-.28zM73.34 78.84h.28v.28h-.28zM73.62 79.39h.28v.28h-.28zM73.62 79.94h.28v.28h-.28z"/><path class="st10" d="M73.62 79.67h.28v.28h-.28z"/><path class="st10" d="M73.89 79.94h.28v.28h-.28zM74.17 79.67h.28v.28h-.28zM73.89 78.84h.28v.28h-.28zM73.89 79.12h.28v.28h-.28z"/><path class="st10" d="M73.89 79.39h.28v.28h-.28zM73.62 78.84h.28v.28h-.28zM73.89 79.67h.28v.28h-.28zM73.62 78.56h.28v.28h-.28zM74.17 79.12h.28v.28h-.28z"/><path class="st10" d="M73.89 78.56h.28v.28h-.28zM74.17 79.39h.28v.28h-.28zM74.17 78.56h.28v.28h-.28zM74.17 78.84h.28v.28h-.28zM74.44 79.67h.28v.28h-.28zM74.72 79.94H75v.28h-.28z"/><path class="st10" d="M74.44 79.39h.28v.28h-.28zM73.89 80.77h.28v.28h-.28zM74.17 80.49h.28v.28h-.28zM74.72 80.22H75v.28h-.28z"/><path class="st10" d="M74.44 80.22h.28v.28h-.28zM73.62 80.22h.28v.28h-.28z"/><path class="st10" d="M74.17 80.22h.28v.28h-.28zM73.62 80.49h.28v.28h-.28z"/><path class="st10" d="M73.89 80.49h.28v.28h-.28zM74.17 79.94h.28v.28h-.28z"/><path class="st10" d="M73.89 80.22h.28v.28h-.28zM74.44 79.94h.28v.28h-.28zM73.34 80.49h.28v.28h-.28zM73.34 80.77h.28v.28h-.28zM73.62 80.77h.28v.28h-.28zM73.62 81.05h.28v.28h-.28z"/><path class="st10" d="M73.89 81.05h.28v.28h-.28z"/><path class="st10" d="M73.89 81.32h.28v.28h-.28zM74.17 80.77h.28v.28h-.28zM74.17 81.05h.28v.28h-.28zM74.44 80.49h.28v.28h-.28z"/><path class="st10" d="M74.44 80.77h.28v.28h-.28zM74.72 80.49H75v.28h-.28zM74.72 80.77H75v.28h-.28z"/><path class="st10" d="M74.99 80.49h.28v.28h-.28z"/></g></g><g><path class="st7" d="M68.15 36.63h2.19v2.19h-2.19zM65.95 30.05h2.19v2.19h-2.19zM63.76 30.05h2.19v2.19h-2.19zM61.57 30.05h2.19v2.19h-2.19zM63.76 32.24h2.19v2.19h-2.19zM61.57 32.24h2.19v2.19h-2.19zM59.37 32.24h2.19v2.19h-2.19zM65.95 36.63h2.19v2.19h-2.19zM63.76 36.63h2.19v2.19h-2.19zM61.57 36.63h2.19v2.19h-2.19zM59.37 36.63h2.19v2.19h-2.19zM57.18 36.63h2.19v2.19h-2.19z"/><path class="st8" d="M54.98 36.63h2.19v2.19h-2.19zM52.79 36.63h2.19v2.19h-2.19zM54.98 34.44h2.19v2.19h-2.19z"/><path class="st7" d="M46.21 34.44h2.19v2.19h-2.19zM44.02 34.44h2.19v2.19h-2.19zM48.4 36.63h2.19v2.19H48.4zM44.02 36.63h2.19v2.19h-2.19zM41.82 36.63h2.19v2.19h-2.19zM39.63 36.63h2.19v2.19h-2.19zM46.21 38.82h2.19v2.19h-2.19zM41.82 38.82h2.19v2.19h-2.19zM39.63 38.82h2.19v2.19h-2.19zM46.21 41.02h2.19v2.19h-2.19zM44.02 41.02h2.19v2.19h-2.19zM44.02 43.21h2.19v2.19h-2.19zM41.82 43.21h2.19v2.19h-2.19zM39.63 43.21h2.19v2.19h-2.19zM46.21 45.41h2.19v2.19h-2.19zM41.82 45.41h2.19v2.19h-2.19zM39.63 45.41h2.19v2.19h-2.19zM46.21 47.6h2.19v2.19h-2.19zM44.02 47.6h2.19v2.19h-2.19zM39.63 47.6h2.19v2.19h-2.19zM37.44 36.63h2.19v2.19h-2.19zM37.44 38.82h2.19v2.19h-2.19zM37.44 41.02h2.19v2.19h-2.19zM37.44 45.41h2.19v2.19h-2.19zM37.44 47.6h2.19v2.19h-2.19zM35.24 38.82h2.19v2.19h-2.19zM35.24 41.02h2.19v2.19h-2.19zM35.24 43.21h2.19v2.19h-2.19zM35.24 47.6h2.19v2.19h-2.19zM33.05 41.02h2.19v2.19h-2.19zM33.05 43.21h2.19v2.19h-2.19zM33.05 47.6h2.19v2.19h-2.19zM30.86 43.21h2.19v2.19h-2.19zM30.86 45.41h2.19v2.19h-2.19zM44.02 49.79h2.19v2.19h-2.19zM41.82 49.79h2.19v2.19h-2.19zM35.24 49.79h2.19v2.19h-2.19zM33.05 49.79h2.19v2.19h-2.19zM30.86 49.79h2.19v2.19h-2.19zM28.66 49.79h2.19v2.19h-2.19zM41.82 51.99h2.19v2.19h-2.19zM39.63 51.99h2.19v2.19h-2.19zM37.44 51.99h2.19v2.19h-2.19zM33.05 51.99h2.19v2.19h-2.19zM30.86 51.99h2.19v2.19h-2.19zM28.66 51.99h2.19v2.19h-2.19zM44.02 54.18h2.19v2.19h-2.19zM39.63 54.18h2.19v2.19h-2.19zM37.44 54.18h2.19v2.19h-2.19zM35.24 54.18h2.19v2.19h-2.19zM44.02 56.37h2.19v2.19h-2.19zM37.44 56.37h2.19v2.19h-2.19zM35.24 56.37h2.19v2.19h-2.19zM33.05 56.37h2.19v2.19h-2.19zM30.86 56.37h2.19v2.19h-2.19zM44.02 58.57h2.19v2.19h-2.19zM41.82 58.57h2.19v2.19h-2.19zM39.63 58.57h2.19v2.19h-2.19zM33.05 58.57h2.19v2.19h-2.19zM30.86 58.57h2.19v2.19h-2.19zM41.82 60.76h2.19v2.19h-2.19zM39.63 60.76h2.19v2.19h-2.19zM37.44 60.76h2.19v2.19h-2.19zM35.24 60.76h2.19v2.19h-2.19zM41.82 62.95h2.19v2.19h-2.19zM39.63 62.95h2.19v2.19h-2.19zM37.44 62.95h2.19v2.19h-2.19zM35.24 62.95h2.19v2.19h-2.19zM33.05 62.95h2.19v2.19h-2.19zM39.63 65.15h2.19v2.19h-2.19zM37.44 65.15h2.19v2.19h-2.19zM35.24 65.15h2.19v2.19h-2.19zM33.05 65.15h2.19v2.19h-2.19zM30.86 65.15h2.19v2.19h-2.19zM35.24 67.34h2.19v2.19h-2.19zM33.05 67.34h2.19v2.19h-2.19zM30.86 67.34h2.19v2.19h-2.19zM28.66 67.34h2.19v2.19h-2.19zM30.86 60.76h2.19v2.19h-2.19zM28.66 54.18h2.19v2.19h-2.19z"/><path class="st8" d="M52.79 34.44h2.19v2.19h-2.19zM52.79 32.24h2.19v2.19h-2.19zM52.79 30.05h2.19v2.19h-2.19zM52.79 27.86h2.19v2.19h-2.19zM52.79 25.66h2.19v2.19h-2.19zM68.15 38.82h2.19v2.19h-2.19zM65.95 38.82h2.19v2.19h-2.19zM63.76 38.82h2.19v2.19h-2.19zM61.57 38.82h2.19v2.19h-2.19zM59.37 38.82h2.19v2.19h-2.19zM57.18 38.82h2.19v2.19h-2.19zM54.98 38.82h2.19v2.19h-2.19zM52.79 38.82h2.19v2.19h-2.19zM68.15 41.02h2.19v2.19h-2.19zM65.95 41.02h2.19v2.19h-2.19zM63.76 41.02h2.19v2.19h-2.19zM61.57 41.02h2.19v2.19h-2.19zM59.37 41.02h2.19v2.19h-2.19zM57.18 41.02h2.19v2.19h-2.19zM54.98 41.02h2.19v2.19h-2.19zM52.79 41.02h2.19v2.19h-2.19zM68.15 43.21h2.19v2.19h-2.19zM65.95 43.21h2.19v2.19h-2.19zM61.57 43.21h2.19v2.19h-2.19zM59.37 43.21h2.19v2.19h-2.19zM57.18 43.21h2.19v2.19h-2.19zM54.98 43.21h2.19v2.19h-2.19zM52.79 43.21h2.19v2.19h-2.19zM63.76 45.41h2.19v2.19h-2.19zM61.57 45.41h2.19v2.19h-2.19zM59.37 45.41h2.19v2.19h-2.19zM57.18 45.41h2.19v2.19h-2.19zM54.98 45.41h2.19v2.19h-2.19zM52.79 45.41h2.19v2.19h-2.19zM68.15 47.6h2.19v2.19h-2.19zM65.95 47.6h2.19v2.19h-2.19zM63.76 47.6h2.19v2.19h-2.19zM61.57 47.6h2.19v2.19h-2.19zM59.37 47.6h2.19v2.19h-2.19zM57.18 47.6h2.19v2.19h-2.19zM54.98 47.6h2.19v2.19h-2.19zM52.79 47.6h2.19v2.19h-2.19zM68.15 49.79h2.19v2.19h-2.19zM65.95 49.79h2.19v2.19h-2.19zM63.76 49.79h2.19v2.19h-2.19zM61.57 49.79h2.19v2.19h-2.19zM59.37 49.79h2.19v2.19h-2.19zM57.18 49.79h2.19v2.19h-2.19zM54.98 49.79h2.19v2.19h-2.19zM52.79 49.79h2.19v2.19h-2.19zM68.15 51.99h2.19v2.19h-2.19zM65.95 51.99h2.19v2.19h-2.19zM63.76 51.99h2.19v2.19h-2.19zM61.57 51.99h2.19v2.19h-2.19zM59.37 51.99h2.19v2.19h-2.19zM57.18 51.99h2.19v2.19h-2.19zM54.98 51.99h2.19v2.19h-2.19zM52.79 51.99h2.19v2.19h-2.19zM68.15 54.18h2.19v2.19h-2.19zM65.95 54.18h2.19v2.19h-2.19zM63.76 54.18h2.19v2.19h-2.19zM61.57 54.18h2.19v2.19h-2.19zM59.37 54.18h2.19v2.19h-2.19zM57.18 54.18h2.19v2.19h-2.19zM54.98 54.18h2.19v2.19h-2.19zM52.79 54.18h2.19v2.19h-2.19zM68.15 56.37h2.19v2.19h-2.19z"/><path class="st7" d="M70.34 38.82h2.19v2.19h-2.19z"/><path class="st8" d="M70.34 41.02h2.19v2.19h-2.19zM70.34 45.41h2.19v2.19h-2.19zM70.34 47.6h2.19v2.19h-2.19zM70.34 49.79h2.19v2.19h-2.19zM70.34 51.99h2.19v2.19h-2.19zM70.34 54.18h2.19v2.19h-2.19zM70.34 56.37h2.19v2.19h-2.19z"/><path class="st7" d="M72.53 41.02h2.19v2.19h-2.19z"/><path class="st8" d="M72.53 43.21h2.19v2.19h-2.19zM72.53 45.41h2.19v2.19h-2.19zM72.53 47.6h2.19v2.19h-2.19zM72.53 49.79h2.19v2.19h-2.19zM72.53 51.99h2.19v2.19h-2.19zM72.53 54.18h2.19v2.19h-2.19zM72.53 56.37h2.19v2.19h-2.19z"/><path class="st7" d="M74.73 43.21h2.19v2.19h-2.19zM74.73 45.41h2.19v2.19h-2.19z"/><path class="st8" d="M74.73 47.6h2.19v2.19h-2.19zM74.73 49.79h2.19v2.19h-2.19zM74.73 51.99h2.19v2.19h-2.19zM74.73 54.18h2.19v2.19h-2.19z"/><path class="st7" d="M74.73 56.37h2.19v2.19h-2.19zM74.73 58.57h2.19v2.19h-2.19zM72.53 58.57h2.19v2.19h-2.19zM72.53 60.76h2.19v2.19h-2.19zM76.92 47.6h2.19v2.19h-2.19z"/><path class="st8" d="M76.92 49.79h2.19v2.19h-2.19zM76.92 51.99h2.19v2.19h-2.19z"/><path class="st7" d="M76.92 54.18h2.19v2.19h-2.19zM79.14 54.18h2.19v2.19h-2.19zM76.92 56.37h2.19v2.19h-2.19zM79.11 49.79h2.19v2.19h-2.19z"/><path class="st8" d="M79.11 51.99h2.19v2.19h-2.19z"/><path class="st7" d="M79.11 56.37h2.19v2.19h-2.19zM81.31 51.99h2.19v2.19h-2.19zM81.31 54.18h2.19v2.19h-2.19zM81.31 56.37h2.19v2.19h-2.19zM83.5 51.99h2.19v2.19H83.5zM83.5 54.18h2.19v2.19H83.5zM85.7 54.18h2.19v2.19H85.7zM85.7 56.37h2.19v2.19H85.7zM87.89 56.37h2.19v2.19h-2.19z"/><path class="st8" d="M65.95 56.37h2.19v2.19h-2.19zM63.76 56.37h2.19v2.19h-2.19zM61.57 56.37h2.19v2.19h-2.19zM68.15 58.57h2.19v2.19h-2.19zM70.34 58.57h2.19v2.19h-2.19z"/><path class="st7" d="M76.92 58.57h2.19v2.19h-2.19zM79.11 58.57h2.19v2.19h-2.19zM81.31 58.57h2.19v2.19h-2.19zM83.5 58.57h2.19v2.19H83.5zM85.7 58.57h2.19v2.19H85.7z"/><path class="st8" d="M65.95 58.57h2.19v2.19h-2.19zM63.76 58.57h2.19v2.19h-2.19zM68.15 60.76h2.19v2.19h-2.19zM70.34 60.76h2.19v2.19h-2.19z"/><path class="st7" d="M76.92 60.76h2.19v2.19h-2.19zM79.11 60.76h2.19v2.19h-2.19zM81.31 60.76h2.19v2.19h-2.19zM83.5 60.76h2.19v2.19H83.5zM72.53 62.95h2.19v2.19h-2.19zM74.73 62.95h2.19v2.19h-2.19zM74.73 65.15h2.19v2.19h-2.19zM76.92 65.15h2.19v2.19h-2.19zM79.11 62.95h2.19v2.19h-2.19zM81.31 62.95h2.19v2.19h-2.19zM83.5 62.95h2.19v2.19H83.5zM85.7 60.76h2.19v2.19H85.7z"/><path class="st8" d="M65.95 60.76h2.19v2.19h-2.19zM63.76 60.76h2.19v2.19h-2.19zM61.57 58.57h2.19v2.19h-2.19zM59.37 56.37h2.19v2.19h-2.19zM57.18 56.37h2.19v2.19h-2.19zM54.98 56.37h2.19v2.19h-2.19zM52.79 56.37h2.19v2.19h-2.19zM50.6 41.02h2.19v2.19H50.6zM50.6 43.21h2.19v2.19H50.6zM50.6 45.41h2.19v2.19H50.6zM50.6 47.6h2.19v2.19H50.6zM50.6 49.79h2.19v2.19H50.6zM50.6 51.99h2.19v2.19H50.6zM50.6 54.18h2.19v2.19H50.6zM50.6 56.37h2.19v2.19H50.6zM48.4 51.99h2.19v2.19H48.4zM48.4 54.18h2.19v2.19H48.4zM48.4 56.37h2.19v2.19H48.4zM57.18 58.57h2.19v2.19h-2.19zM54.98 58.57h2.19v2.19h-2.19zM52.79 58.57h2.19v2.19h-2.19zM50.6 58.57h2.19v2.19H50.6zM48.4 58.57h2.19v2.19H48.4zM57.18 60.76h2.19v2.19h-2.19zM54.98 60.76h2.19v2.19h-2.19zM52.79 60.76h2.19v2.19h-2.19zM50.6 60.76h2.19v2.19H50.6zM48.4 60.76h2.19v2.19H48.4zM57.18 62.95h2.19v2.19h-2.19zM54.98 62.95h2.19v2.19h-2.19zM52.79 62.95h2.19v2.19h-2.19zM50.6 62.95h2.19v2.19H50.6zM48.4 62.95h2.19v2.19H48.4zM57.18 65.15h2.19v2.19h-2.19zM54.98 65.15h2.19v2.19h-2.19zM52.79 65.15h2.19v2.19h-2.19zM50.6 65.15h2.19v2.19H50.6zM48.4 65.15h2.19v2.19H48.4zM57.18 67.34h2.19v2.19h-2.19zM54.98 67.34h2.19v2.19h-2.19zM52.79 67.34h2.19v2.19h-2.19zM50.6 67.34h2.19v2.19H50.6zM48.4 67.34h2.19v2.19H48.4zM57.18 69.54h2.19v2.19h-2.19zM54.98 69.54h2.19v2.19h-2.19zM52.79 69.54h2.19v2.19h-2.19zM50.6 69.54h2.19v2.19H50.6zM48.4 69.54h2.19v2.19H48.4zM57.18 71.73h2.19v2.19h-2.19zM54.98 71.73h2.19v2.19h-2.19zM52.79 71.73h2.19v2.19h-2.19zM50.6 71.73h2.19v2.19H50.6zM48.4 71.73h2.19v2.19H48.4zM57.18 73.92h2.19v2.19h-2.19zM54.98 73.92h2.19v2.19h-2.19zM52.79 73.92h2.19v2.19h-2.19zM50.6 73.92h2.19v2.19H50.6zM48.4 73.92h2.19v2.19H48.4zM46.21 62.95h2.19v2.19h-2.19zM46.21 65.15h2.19v2.19h-2.19zM46.21 67.34h2.19v2.19h-2.19zM46.21 69.54h2.19v2.19h-2.19zM46.21 71.73h2.19v2.19h-2.19zM46.21 73.92h2.19v2.19h-2.19zM44.02 67.34h2.19v2.19h-2.19zM44.02 69.54h2.19v2.19h-2.19zM44.02 71.73h2.19v2.19h-2.19zM41.82 67.34h2.19v2.19h-2.19zM41.82 69.54h2.19v2.19h-2.19zM39.63 69.54h2.19v2.19h-2.19zM39.63 71.73h2.19v2.19h-2.19zM37.44 69.54h2.19v2.19h-2.19zM41.82 71.73h2.19v2.19h-2.19zM44.02 73.92h2.19v2.19h-2.19zM57.18 76.12h2.19v2.19h-2.19zM59.37 60.76h2.19v2.19h-2.19zM59.37 62.95h2.19v2.19h-2.19zM59.37 65.15h2.19v2.19h-2.19zM59.37 67.34h2.19v2.19h-2.19zM59.37 69.54h2.19v2.19h-2.19zM59.37 71.73h2.19v2.19h-2.19zM59.37 73.92h2.19v2.19h-2.19zM59.37 76.12h2.19v2.19h-2.19zM61.57 65.15h2.19v2.19h-2.19zM61.57 62.95h2.19v2.19h-2.19zM61.57 67.34h2.19v2.19h-2.19zM61.57 69.54h2.19v2.19h-2.19zM61.57 71.73h2.19v2.19h-2.19zM61.57 73.92h2.19v2.19h-2.19zM61.57 76.12h2.19v2.19h-2.19zM54.98 76.12h2.19v2.19h-2.19zM52.79 76.12h2.19v2.19h-2.19zM57.18 78.31h2.19v2.19h-2.19zM59.37 78.31h2.19v2.19h-2.19zM61.57 78.31h2.19v2.19h-2.19zM57.18 80.5h2.19v2.19h-2.19zM59.37 80.5h2.19v2.19h-2.19zM61.57 80.5h2.19v2.19h-2.19zM61.57 82.7h2.19v2.19h-2.19zM54.98 78.31h2.19v2.19h-2.19zM52.79 78.31h2.19v2.19h-2.19zM50.6 76.12h2.19v2.19H50.6zM48.4 76.12h2.19v2.19H48.4z"/><path class="st7" d="M54.98 32.24h2.19v2.19h-2.19zM54.98 30.05h2.19v2.19h-2.19zM54.98 27.86h2.19v2.19h-2.19zM54.98 25.66h2.19v2.19h-2.19z"/><path class="st5" d="M90.08 60.76h2.19v2.19h-2.19zM90.08 58.57h2.19v2.19h-2.19zM90.08 56.37h2.19v2.19h-2.19zM90.08 54.18h2.19v2.19h-2.19zM87.89 62.95h2.19v2.19h-2.19zM87.89 60.76h2.19v2.19h-2.19z"/><path class="st7" d="M87.89 58.57h2.19v2.19h-2.19z"/><path class="st5" d="M87.89 54.18h2.19v2.19h-2.19zM87.89 51.99h2.19v2.19h-2.19zM85.7 65.15h2.19v2.19H85.7zM85.7 62.95h2.19v2.19H85.7zM85.7 51.99h2.19v2.19H85.7zM85.7 49.79h2.19v2.19H85.7zM83.5 65.15h2.19v2.19H83.5zM83.5 49.79h2.19v2.19H83.5zM81.31 65.15h2.19v2.19h-2.19zM81.31 47.6h2.19v2.19h-2.19zM81.31 49.79h2.19v2.19h-2.19zM79.11 65.15h2.19v2.19h-2.19zM79.11 47.6h2.19v2.19h-2.19zM79.11 45.4h2.19v2.19h-2.19zM76.92 67.34h2.19v2.19h-2.19zM76.92 45.4h2.19v2.19h-2.19zM76.92 43.21h2.19v2.19h-2.19zM76.92 41.02h2.19v2.19h-2.19zM74.73 67.34h2.19v2.19h-2.19zM74.73 41.02h2.19v2.19h-2.19zM74.73 38.82h2.19v2.19h-2.19zM72.53 65.15h2.19v2.19h-2.19zM72.53 38.82h2.19v2.19h-2.19zM72.53 36.63h2.19v2.19h-2.19zM68.15 30.05h2.19v2.19h-2.19zM70.34 65.15h2.19v2.19h-2.19zM70.34 62.95h2.19v2.19h-2.19zM70.34 36.63h2.19v2.19h-2.19zM70.34 34.44h2.19v2.19h-2.19zM68.15 62.95h2.19v2.19h-2.19zM68.15 34.44h2.19v2.19h-2.19zM65.95 62.95h2.19v2.19h-2.19zM65.95 34.44h2.19v2.19h-2.19zM65.95 32.24h2.19v2.19h-2.19zM65.95 27.86h2.19v2.19h-2.19zM63.76 84.89h2.19v2.19h-2.19zM63.76 82.69h2.19v2.19h-2.19zM63.76 80.5h2.19v2.19h-2.19zM63.76 78.31h2.19v2.19h-2.19zM63.76 76.11h2.19v2.19h-2.19zM63.76 73.92h2.19v2.19h-2.19zM63.76 71.73h2.19v2.19h-2.19zM63.76 69.53h2.19v2.19h-2.19zM63.76 67.34h2.19v2.19h-2.19zM63.76 65.15h2.19v2.19h-2.19zM63.76 62.95h2.19v2.19h-2.19zM63.76 34.44h2.19v2.19h-2.19zM63.76 27.86h2.19v2.19h-2.19zM61.57 84.89h2.19v2.19h-2.19zM61.57 60.76h2.19v2.19h-2.19zM61.57 34.44h2.19v2.19h-2.19zM61.57 27.86h2.19v2.19h-2.19zM59.37 82.69h2.19v2.19h-2.19zM59.37 58.57h2.19v2.19h-2.19zM59.37 34.44h2.19v2.19h-2.19zM59.37 30.05h2.19v2.19h-2.19zM57.18 82.69h2.19v2.19h-2.19zM57.18 34.44h2.19v2.19h-2.19zM57.18 32.24h2.19v2.19h-2.19zM57.18 30.05h2.19v2.19h-2.19zM57.18 27.86h2.19v2.19h-2.19zM57.18 25.66h2.19v2.19h-2.19zM54.98 80.5h2.19v2.19h-2.19zM54.98 23.47h2.19v2.19h-2.19zM52.79 80.5h2.19v2.19h-2.19zM52.79 23.47h2.19v2.19h-2.19zM50.6 78.31h2.19v2.19H50.6zM50.6 38.82h2.19v2.19H50.6zM50.6 36.63h2.19v2.19H50.6zM50.6 34.44h2.19v2.19H50.6zM50.6 32.24h2.19v2.19H50.6zM50.6 30.05h2.19v2.19H50.6zM50.6 27.86h2.19v2.19H50.6zM50.6 25.66h2.19v2.19H50.6zM48.4 78.31h2.19v2.19H48.4zM48.4 49.79h2.19v2.19H48.4zM48.4 47.6h2.19v2.19H48.4zM48.4 45.4h2.19v2.19H48.4zM48.4 43.21h2.19v2.19H48.4zM48.4 41.02h2.19v2.19H48.4zM48.4 38.82h2.19v2.19H48.4zM48.4 34.44h2.19v2.19H48.4zM48.4 32.24h2.19v2.19H48.4zM48.4 30.05h2.19v2.19H48.4zM46.21 76.11h2.19v2.19h-2.19zM46.21 60.76h2.19v2.19h-2.19zM46.21 58.57h2.19v2.19h-2.19zM46.21 56.37h2.19v2.19h-2.19zM46.21 54.18h2.19v2.19h-2.19zM46.21 51.99h2.19v2.19h-2.19zM46.21 49.79h2.19v2.19h-2.19zM46.21 32.24h2.19v2.19h-2.19zM44.02 76.11h2.19v2.19h-2.19zM44.02 65.15h2.19v2.19h-2.19zM44.02 62.95h2.19v2.19h-2.19zM44.02 60.76h2.19v2.19h-2.19zM44.02 32.24h2.19v2.19h-2.19zM41.82 73.92h2.19v2.19h-2.19zM41.82 65.15h2.19v2.19h-2.19zM39.63 73.92h2.19v2.19h-2.19zM39.63 67.34h2.19v2.19h-2.19zM37.44 71.73h2.19v2.19h-2.19zM37.44 67.34h2.19v2.19h-2.19zM37.44 34.44h2.19v2.19h-2.19zM35.24 71.73h2.19v2.19h-2.19zM35.24 69.53h2.19v2.19h-2.19zM35.24 36.63h2.19v2.19h-2.19zM33.05 69.53h2.19v2.19h-2.19zM33.05 38.82h2.19v2.19h-2.19zM33.05 36.63h2.19v2.19h-2.19zM30.86 69.53h2.19v2.19h-2.19zM30.86 62.95h2.19v2.19h-2.19zM30.86 41.02h2.19v2.19h-2.19zM30.86 38.82h2.19v2.19h-2.19zM28.66 69.53h2.19v2.19h-2.19zM28.66 65.15h2.19v2.19h-2.19zM28.66 62.95h2.19v2.19h-2.19zM28.66 60.76h2.19v2.19h-2.19zM28.66 58.57h2.19v2.19h-2.19zM28.66 56.37h2.19v2.19h-2.19zM28.66 45.4h2.19v2.19h-2.19zM28.66 43.21h2.19v2.19h-2.19zM28.66 41.02h2.19v2.19h-2.19zM26.47 69.53h2.19v2.19h-2.19zM26.47 67.34h2.19v2.19h-2.19zM26.47 65.15h2.19v2.19h-2.19zM26.47 54.18h2.19v2.19h-2.19zM26.47 51.99h2.19v2.19h-2.19zM26.47 49.79h2.19v2.19h-2.19zM26.47 47.6h2.19v2.19h-2.19z"/><path class="st5" d="M24.28 69.53h2.19v2.19h-2.19zM24.28 67.34h2.19v2.19h-2.19zM41.82 34.44h2.19v2.19h-2.19zM39.63 34.44h2.19v2.19h-2.19zM46.21 36.63h2.19v2.19h-2.19zM44.02 38.82h2.19v2.19h-2.19zM41.82 41.02h2.19v2.19h-2.19zM39.63 41.02h2.19v2.19h-2.19zM46.21 43.21h2.19v2.19h-2.19zM44.02 45.41h2.19v2.19h-2.19zM41.82 47.6h2.19v2.19h-2.19zM37.44 43.21h2.19v2.19h-2.19zM35.24 45.41h2.19v2.19h-2.19zM33.05 45.41h2.19v2.19h-2.19zM30.86 47.6h2.19v2.19h-2.19zM28.66 47.6h2.19v2.19h-2.19zM39.63 49.79h2.19v2.19h-2.19zM37.44 49.79h2.19v2.19h-2.19zM44.02 51.99h2.19v2.19h-2.19zM35.24 51.99h2.19v2.19h-2.19zM41.82 54.18h2.19v2.19h-2.19zM33.05 54.18h2.19v2.19h-2.19zM30.86 54.18h2.19v2.19h-2.19zM41.82 56.37h2.19v2.19h-2.19zM39.63 56.37h2.19v2.19h-2.19zM37.44 58.57h2.19v2.19h-2.19zM35.24 58.57h2.19v2.19h-2.19zM33.05 60.76h2.19v2.19h-2.19zM63.76 43.21h2.19v2.19h-2.19zM68.15 45.41h2.19v2.19h-2.19zM65.95 45.41h2.19v2.19h-2.19zM70.34 43.21h2.19v2.19h-2.19zM83.5 56.37h2.19v2.19H83.5zM74.73 60.76h2.19v2.19h-2.19zM76.92 62.95h2.19v2.19h-2.19z"/></g><g><path class="st10" d="M9.87 79.09l-3.54 1.86a55.635 55.635 0 0 0 13.98 17.13l2.53-3.09c-5.36-4.34-9.78-9.81-12.97-15.9z"/><path class="st5" d="M5.01 65.54L4.7 63.5l-3.98.64c.24 1.47.54 2.93.89 4.36l3.91-.96-.51-2zM31.44 100.66c-.48-.21-.92-.47-1.35-.75l-1.32-.81c-.87-.56-1.8-1.02-2.62-1.65l-2.28 3.29c3.64 2.52 7.59 4.61 11.79 6.2l1.43-3.78c-1.98-.6-3.78-1.64-5.65-2.5zM47.03 4.72l3.06-.46 3.1-.15-.16-4.05c-4.55.18-8.95.92-13.15 2.13L41 6.05c2-.49 3.97-1.11 6.03-1.33z"/><path class="st10" d="M106.53 55.28c-.08 5.52-.96 11-2.67 16.23-1.65 5.26-4.38 10.14-7.66 14.54l3.26 2.45a55.057 55.057 0 0 0 11.09-33.22c0-7.7-1.58-15.02-4.42-21.68l-3.7 1.58c2.73 6.32 4.09 13.2 4.1 20.1zM57.32 106.44l.16 4.05c7.66-.3 14.92-2.15 21.48-5.27l-1.75-3.67a50.79 50.79 0 0 1-19.89 4.89z"/><path class="st5" d="M94.64 22.46c.35.38.63.82.95 1.23l1.86 2.48c.63.82 1.09 1.75 1.65 2.62l.81 1.32c.28.44.54.88.75 1.35l3.57-1.88a55.876 55.876 0 0 0-7.58-10.96l-3.04 2.7 1.03 1.14z"/><path class="st10" d="M6.33 29.6l3.54 1.86C15.05 21.77 23.28 13.61 33.3 9l-1.74-3.66A55.435 55.435 0 0 0 6.33 29.6zM40.99 104.5l-1.12 3.86c1.42.41 2.86.78 4.32 1.08l.8-3.92-4-1.02zM77.21 9l1.75-3.67A54.889 54.889 0 0 0 57.48.06l-.16 4.05A50.79 50.79 0 0 1 77.21 9zM.19 59.72l4-.32c-.55-6.86.27-13.84 2.45-20.36l-3.8-1.27A55.435 55.435 0 0 0 0 55.28c0 1.49.08 2.97.19 4.44z"/><path class="st5" d="M90.74 18.33l2.8-2.91a54.972 54.972 0 0 0-3.33-2.96l-2.54 3.11c1.05.89 2.05 1.84 3.07 2.76zM90.74 92.23l-2.29 2.08-.57.52-.62.46-1.24.93c-.84.6-1.63 1.28-2.5 1.82l-2.65 1.61 2.03 3.5c3.87-2.24 7.45-4.93 10.65-8.01l-2.81-2.91z"/></g></g></svg>