<?xml version="1.0" encoding="utf-8"?>
<!-- Svg Vector Icons : http://www.onlinewebfonts.com/icon -->
<!DOCTYPE svg PUBLIC "-//W3C//DTD SVG 1.1//EN" "http://www.w3.org/Graphics/SVG/1.1/DTD/svg11.dtd">
<svg version="1.1" xmlns="http://www.w3.org/2000/svg" xmlns:xlink="http://www.w3.org/1999/xlink" x="0px" y="0px" viewBox="0 0 1000 1000" enable-background="new 0 0 1000 1000" xml:space="preserve">
<metadata> Svg Vector Icons : http://www.onlinewebfonts.com/icon </metadata>
<g><path d="M735.9,462.8c-140.4,0-254.1,113.7-254.1,254.1c0,140.3,113.7,254.1,254.1,254.1C876.2,971,990,857.3,990,716.9C990,576.6,876.2,462.8,735.9,462.8z M842.7,921.5c0,0-10.1-6.6-6-34c0,0-28-8.9-51.3-27.5c0,0-17.3-25,0.6-44.7c0,0-11.3-28.7-65-38.2c0,0-34-3.6-45.3-3c0,0-20.3-22.5-23.3-46.8c0,0-19.1-18.9-50.7-27.8c0,0-43.5-14.9-16.1-72.8c0,0,33.4-60.8-3-65c0,0-17.9,10.1-24.5,10.1c0,0-9.5-2.7-7.8-6.6c0,0,22.1-59,72.8-40.5c0,0,21.5,9.6,25.1,26.3c0,0,11.8,10.7,50.3-15.5c0,0,40.9,4.1,11.7,25.1c-29.2,20.9-35.8,24.4-1.2,34.6c0,0,42.4,13.2,32.8-37c0,0,35.8-33.4,128.2,81.7c0,0,12.9,4.3-70.4,10.1c-68,4.8-21.5,73.4,10.8,88.3c0,0-10.1,19.7-44.7,0c0,0-17.9-13.1-14.3-30.4c0,0-25.8-21.5-52.8,0.6c0,0-27.1,51.9,40.9,31.6c0,0,10.1,79.3,113.3,20.9c0,0,10.1-13.1,94.2,21.5c0,0,7.8,35.8-21.5,79.3C925.6,861.9,890.4,916.1,842.7,921.5z"/><path d="M446.6,406.5c275.6,0,467.8-69.8,467.8-155.9V157C914.4,70.9,722.2,1,446.6,1C171,1,10,70.9,10,157v93.5C10,336.6,171,406.5,446.6,406.5z"/><path d="M390,779.6c-189.3-7-299.8-50.2-357.9-108C17.2,686.3,10,702,10,718.3v124.8C10,929.2,171,999,446.6,999c27.6,0,54.4-0.9,80.8-2.2C456.6,945.8,406.1,868.8,390,779.6z"/><path d="M384.3,716.9c0.3-82.4,29.7-158.1,78.5-217c-5.9,0-11.6,0.1-17.7,0.1c-223.4,0-349.4-45.9-413-109.1C17.2,405.7,10,421.3,10,437.7v124.8C10,641.7,147.1,707.2,384.3,716.9z"/></g>
</svg>